<?xml version="1.0" standalone="no"?>
<!DOCTYPE svg PUBLIC "-//W3C//DTD SVG 20010904//EN" "http://www.w3.org/TR/2001/REC-SVG-20010904/DTD/svg10.dtd">
<svg version="1.0" xmlns="http://www.w3.org/2000/svg"
  width="512.000000pt" height="512.000000pt" viewBox="0 0 512.000000 512.000000"
  preserveAspectRatio="xMidYMid meet">

  <g transform="translate(0.000000,512.000000) scale(0.100000,-0.100000)"
    fill="#1f2937" stroke="none">
    <path
      d="M2090 5105 c-262 -53 -471 -251 -542 -513 -19 -70 -21 -113 -25 -469
l-5 -392 -242 -3 c-236 -3 -242 -4 -297 -29 -76 -36 -129 -86 -170 -161 l-34
-63 0 -210 0 -210 34 -63 c41 -75 94 -125 170 -160 47 -22 73 -27 169 -30 61
-2 112 -6 112 -8 0 -1 -18 -31 -40 -66 -52 -83 -87 -179 -106 -291 -9 -51 -17
-92 -17 -93 -1 -1 -27 -14 -57 -30 -31 -16 -92 -66 -140 -114 -69 -68 -94
-102 -128 -170 -75 -153 -73 -124 -70 -998 l3 -777 23 -47 c38 -75 96 -134
170 -170 l67 -33 1595 0 1595 0 67 33 c74 36 132 95 170 170 l23 47 0 805 0
805 -27 73 c-15 41 -42 99 -60 130 -44 76 -180 210 -248 246 -30 16 -56 29
-57 30 0 1 -8 42 -17 93 -19 112 -54 208 -106 291 -22 35 -40 65 -40 66 0 2
51 5 113 7 103 4 118 7 179 37 77 38 130 92 167 171 25 55 26 61 26 256 l0
200 -33 67 c-38 77 -92 130 -171 167 -55 26 -61 26 -298 29 l-243 3 0 332 c0
183 -4 347 -10 366 -23 82 -117 82 -140 0 -6 -19 -10 -120 -10 -226 l0 -192
-32 -9 c-18 -6 -41 -13 -50 -17 -17 -7 -18 7 -18 212 0 258 -8 300 -73 370
-23 26 -64 57 -92 69 -46 22 -63 24 -210 24 -176 0 -190 -4 -307 -81 -37 -25
-58 -31 -98 -31 -40 0 -61 6 -98 31 -117 77 -131 81 -307 81 -147 0 -164 -2
-210 -24 -27 -12 -69 -43 -92 -69 -65 -70 -73 -112 -73 -369 0 -120 -1 -218
-3 -218 -2 0 -24 7 -50 16 l-47 16 0 247 c0 198 3 258 16 302 54 180 187 320
362 381 66 23 73 23 502 23 400 0 439 -2 490 -19 108 -37 154 -67 245 -160 50
-51 97 -95 106 -98 26 -10 78 18 85 46 10 41 -1 66 -58 134 -93 109 -215 188
-354 229 -51 15 -115 17 -489 19 -326 2 -446 -1 -495 -11z m275 -644 c134 -88
256 -88 390 0 l76 49 138 0 c125 0 141 -2 165 -21 54 -43 56 -55 56 -358 l0
-281 28 -30 c43 -48 86 -50 149 -6 84 58 86 56 82 -88 -5 -150 -13 -166 -91
-166 -85 0 -102 -21 -112 -141 -21 -231 -186 -439 -426 -536 -129 -52 -265
-65 -392 -38 -215 45 -401 181 -486 356 -47 94 -72 181 -72 247 0 48 -21 96
-45 106 -9 3 -37 6 -63 6 -76 0 -82 11 -82 162 0 141 4 148 57 104 68 -56 123
-58 167 -5 l26 31 0 279 c0 303 2 315 56 358 24 19 40 21 165 21 l138 0 76
-49z m-820 -921 c24 -52 83 -106 135 -121 31 -9 42 -18 46 -38 34 -166 73
-260 152 -363 l51 -68 -428 0 -428 0 -44 23 c-24 13 -57 43 -74 66 l-30 43 0
183 0 183 30 43 c17 23 50 53 74 66 42 22 53 23 271 23 l227 0 18 -40z m2546
17 c24 -13 58 -43 74 -66 l30 -43 0 -183 0 -183 -30 -43 c-16 -23 -50 -53 -74
-66 l-44 -23 -428 0 -428 0 51 68 c79 103 118 197 152 363 4 20 15 29 46 38
52 15 111 69 135 121 l18 40 227 0 c218 0 229 -1 271 -23z m-2016 -876 l0
-114 -84 -19 c-80 -17 -85 -17 -97 0 -7 9 -14 20 -14 24 0 4 -17 19 -37 33
-28 19 -51 25 -89 25 -71 0 -249 -51 -280 -81 -31 -29 -54 -71 -54 -98 0 -11
-8 -22 -17 -25 -48 -13 -135 -27 -140 -22 -10 10 29 137 63 205 18 36 56 94
84 129 l51 62 307 -2 307 -3 0 -114z m1635 57 c28 -35 66 -93 84 -129 34 -68
73 -195 63 -205 -5 -5 -91 9 -137 22 -9 2 -21 23 -27 47 -6 23 -25 55 -42 71
-36 35 -165 75 -263 83 -57 5 -72 2 -102 -16 -20 -13 -44 -36 -53 -52 -10 -16
-20 -29 -23 -28 -3 0 -41 8 -85 18 l-80 17 -3 104 c-1 57 0 110 2 117 4 10 67
13 310 13 l305 0 51 -62z m-1294 -44 c138 -26 257 -15 452 42 l24 7 -4 -169
c-3 -154 -5 -173 -26 -212 -36 -67 -98 -129 -161 -159 -48 -23 -69 -27 -141
-27 -72 0 -93 4 -142 28 -63 31 -124 91 -160 158 -21 39 -23 58 -26 215 l-4
172 50 -19 c27 -10 89 -26 138 -36z m-659 -776 c-3 -537 -5 -567 -25 -653 -12
-49 -29 -112 -38 -140 -22 -68 -115 -265 -126 -265 -4 0 -8 26 -8 58 0 61 -30
138 -68 178 l-20 22 28 83 c36 107 58 215 62 305 4 86 -14 114 -69 114 -48 0
-70 -27 -78 -97 -10 -102 -25 -176 -51 -255 l-26 -78 -244 0 -244 0 0 309 c0
279 2 315 20 372 42 139 149 266 273 327 58 29 212 72 257 72 19 0 20 -8 20
-200 0 -187 1 -201 20 -220 30 -30 83 -27 109 6 20 26 21 39 21 305 l0 278 38
10 c20 5 53 14 72 19 19 6 45 11 58 11 l23 1 -4 -562z m1673 553 c19 -6 54
-15 77 -21 l41 -10 5 -503 c5 -546 6 -556 67 -736 l28 -83 -20 -22 c-38 -40
-68 -117 -68 -178 0 -32 -4 -58 -8 -58 -15 0 -110 211 -137 305 -50 174 -55
238 -55 798 0 578 -7 528 70 508z m-1336 -91 c11 -60 59 -143 118 -206 189
-202 507 -202 696 0 59 64 107 146 119 207 7 34 9 35 133 8 l50 -11 0 -470 c0
-510 6 -593 56 -766 53 -185 163 -405 250 -503 l44 -50 0 -219 0 -220 -1000 0
-1000 0 0 220 0 220 38 43 c78 85 183 282 236 444 68 204 69 218 73 785 l4
517 57 11 c31 6 62 13 67 15 34 12 53 4 59 -25z m1733 -130 c48 -12 117 -35
153 -53 82 -40 184 -141 228 -223 57 -110 62 -146 62 -481 l0 -303 -244 0
-244 0 -25 78 c-48 145 -49 161 -54 590 -6 477 -22 426 124 392z m-2487 -1225
c15 -8 38 -27 49 -41 21 -26 21 -36 21 -431 l0 -404 -214 3 -214 3 -43 30
c-23 17 -53 50 -66 74 -23 44 -23 46 -23 413 l0 368 230 0 c184 0 237 -3 260
-15z m2930 -353 c0 -367 0 -369 -23 -413 -13 -24 -43 -57 -66 -74 l-43 -30
-214 -3 -214 -3 0 403 c0 445 -2 429 64 469 28 17 52 19 264 19 l232 0 0 -368z" />
  </g>
</svg>