<svg width="40" height="40" viewBox="0 0 40 40" fill="none" xmlns="http://www.w3.org/2000/svg">
  <g clip-path="url(#clip0_764_51979)">
    <path
      d="M18.2219 28.9883C17.0334 28.9883 16.0664 29.9552 16.0664 31.1437V34.3328C16.0664 35.5213 17.0334 36.4883 18.2219 36.4883H22.0359C23.2245 36.4883 24.1914 35.5213 24.1914 34.3328V31.1437C24.1914 29.9552 23.2245 28.9883 22.0359 28.9883H18.2219ZM22.6289 31.1437V34.3328C22.6289 34.6598 22.3629 34.9258 22.0359 34.9258H18.2219C17.8949 34.9258 17.6289 34.6598 17.6289 34.3328V31.1437C17.6289 30.8168 17.8949 30.5508 18.2219 30.5508H22.0359C22.3629 30.5508 22.6289 30.8168 22.6289 31.1437Z"
      fill="#1f2937" />
    <path
      d="M39.2188 38.3622H38.5764C38.5238 33.7923 38.0101 29.4323 37.0458 25.3915C36.2228 21.9432 35.0718 18.7161 33.6248 15.7996C33.1479 14.8387 32.6361 13.9079 32.1008 13.0268C32.1984 12.7394 32.2521 12.4321 32.2521 12.1122C32.2521 11.601 32.1162 11.1212 31.8797 10.7059H39.2188C39.5064 10.7059 39.7707 10.548 39.9069 10.2945C40.043 10.0412 40.0291 9.73351 39.8704 9.49367C38.4263 7.31023 35.6896 5.89937 32.8986 5.89937C32.5187 5.89937 32.1352 5.92859 31.7526 5.98226L36.1959 1.53898C36.3992 1.33554 36.4744 1.03695 36.3916 0.761557C36.3088 0.486167 36.0812 0.278432 35.7995 0.22101C33.2346 -0.301568 30.3019 0.63562 28.328 2.60937C27.6106 3.32687 27.0124 4.20148 26.5785 5.15249C26.1443 4.20124 25.5451 3.32578 24.8286 2.60929C22.8549 0.635698 19.9224 -0.301724 17.3572 0.22101C17.0754 0.278432 16.8479 0.486167 16.7651 0.761557C16.6823 1.03695 16.7574 1.33562 16.9608 1.53898L21.4016 5.97984C21.0205 5.92703 20.638 5.89937 20.2581 5.89937C17.467 5.89937 14.7304 7.31023 13.2862 9.49367C13.1276 9.73351 13.1136 10.0412 13.2498 10.2945C13.3859 10.5479 13.6502 10.7059 13.9379 10.7059H22.5832C22.3834 11.099 22.2716 11.5388 22.2716 11.995C22.2716 13.5673 23.5509 14.8466 25.1232 14.8466C25.7936 14.8466 26.4102 14.6134 26.8976 14.2248C29.5643 18.0547 33.4014 25.7391 33.5545 38.3622H27.6306V35.3934C27.6306 34.962 27.2808 34.6122 26.8494 34.6122C26.418 34.6122 26.0681 34.962 26.0681 35.3934V38.3622H14.1931V31.8778C14.1931 29.5516 12.3006 27.6591 9.97437 27.6591C7.64812 27.6591 5.75562 29.5516 5.75562 31.8778V38.3622H3.88063V25.3934H26.0681V28.3622C26.0681 28.7936 26.418 29.1434 26.8494 29.1434C27.2808 29.1434 27.6306 28.7936 27.6306 28.3622V25.3934H29.0625C29.3428 25.3934 29.6016 25.2432 29.7408 24.9998C29.8799 24.7565 29.878 24.4572 29.7357 24.2156C26.5102 18.7405 21.1655 14.9155 15.0721 13.7212C14.9728 13.7019 14.8709 13.7019 14.7716 13.7212C8.67813 14.9155 3.33344 18.7405 0.108125 24.2156C-0.0341406 24.4572 -0.0360937 24.7565 0.102969 24.9998C0.242109 25.2432 0.500938 25.3934 0.78125 25.3934H2.31813V38.3622H0.78125C0.349766 38.3622 0 38.712 0 39.1434C0 39.5748 0.349766 39.9247 0.78125 39.9247H39.2188C39.6502 39.9247 40 39.5748 40 39.1434C40 38.712 39.6502 38.3622 39.2188 38.3622ZM27.6421 23.8309H20.0998C19.6187 21.4758 18.7457 18.2013 17.3151 15.9325C21.4724 17.3423 25.1069 20.1126 27.6421 23.8309ZM14.9219 15.4559C16.3329 16.6816 17.6327 19.7166 18.5042 23.8309H11.3395C12.211 19.7166 13.5109 16.6816 14.9219 15.4559ZM12.5286 15.9325C11.098 18.2013 10.2251 21.4758 9.74391 23.8309H2.20164C4.7368 20.1126 8.37125 17.3424 12.5286 15.9325ZM7.31812 38.3622V31.8778C7.31812 30.4131 8.50969 29.2216 9.97437 29.2216C11.4391 29.2216 12.6306 30.4131 12.6306 31.8778V38.3622H7.31812ZM25.017 8.75093C25.017 8.04015 25.5953 7.46187 26.3061 7.46187C27.0169 7.46187 27.5952 8.04015 27.5952 8.75093C27.5952 9.46171 27.0169 10.04 26.3061 10.04C25.5953 10.04 25.017 9.46171 25.017 8.75093ZM28.1115 12.1122C28.1115 11.4014 28.6898 10.8231 29.4005 10.8231C30.1113 10.8231 30.6896 11.4014 30.6896 12.1122C30.6896 12.823 30.1113 13.4012 29.4005 13.4012C28.6898 13.4012 28.1115 12.823 28.1115 12.1122ZM32.8986 7.46187C34.567 7.46187 36.2532 8.10367 37.4794 9.14335H29.13C29.1477 9.01492 29.1577 8.88414 29.1577 8.75093C29.1577 8.69437 29.1555 8.63828 29.1523 8.58249L29.2665 8.46828C30.3618 7.82453 31.6543 7.46187 32.8986 7.46187ZM29.4329 3.71421C30.6127 2.53437 32.2588 1.79593 33.861 1.66414L28.5414 6.98367C28.3319 6.71921 28.077 6.49218 27.7878 6.31562C28.1482 5.33523 28.7187 4.42835 29.4329 3.71421ZM23.7237 3.71421C24.3818 4.37234 24.919 5.19679 25.2814 6.09062C24.9239 6.22882 24.6012 6.43687 24.3298 6.69828L19.2956 1.66414C20.8978 1.79593 22.544 2.53437 23.7237 3.71421ZM20.2581 7.46187C21.3595 7.46187 22.4898 7.74093 23.4988 8.25375C23.4703 8.41531 23.4545 8.58125 23.4545 8.75093C23.4545 8.88414 23.4645 9.01499 23.4822 9.14335H15.6773C16.9034 8.10367 18.5897 7.46187 20.2581 7.46187ZM25.1232 13.2841C24.4124 13.2841 23.8341 12.7058 23.8341 11.995C23.8341 11.5494 24.067 11.1371 24.4386 10.9031C24.9394 11.3382 25.5923 11.6025 26.3061 11.6025C26.3212 11.6025 26.336 11.6016 26.351 11.6013C26.3913 11.7272 26.4123 11.8594 26.4123 11.9949C26.4123 12.7058 25.834 13.2841 25.1232 13.2841ZM35.1175 38.3622C35.044 32.2425 34.1049 26.6045 32.3234 21.5941C31.3442 18.8404 30.238 16.6412 29.2275 14.958C29.2848 14.9615 29.3424 14.9637 29.4005 14.9637C30.0366 14.9637 30.6245 14.7543 31.0994 14.4009C31.4912 15.0748 31.8684 15.7752 32.2251 16.4941C33.6198 19.3049 34.7303 22.4205 35.526 25.7541C36.462 29.677 36.9622 33.9148 37.0145 38.3622H35.1175Z"
      fill="#1f2937" />
    <path
      d="M26.8477 31.0977C26.6422 31.0977 26.4406 31.1805 26.2953 31.3258C26.1501 31.4719 26.0664 31.6734 26.0664 31.8789C26.0664 32.0844 26.15 32.2852 26.2953 32.4313C26.4406 32.5766 26.6422 32.6602 26.8477 32.6602C27.0539 32.6602 27.2547 32.5766 27.4 32.4313C27.5452 32.2852 27.6289 32.0844 27.6289 31.8789C27.6289 31.6734 27.5453 31.4719 27.4 31.3258C27.2547 31.1805 27.0539 31.0977 26.8477 31.0977Z"
      fill="#1f2937" />
  </g>
  <defs>
    <clipPath id="clip0_764_51979">
      <rect width="40" height="40" fill="white" />
    </clipPath>
  </defs>
</svg>