<svg width="40" height="40" viewBox="0 0 40 40" fill="none" xmlns="http://www.w3.org/2000/svg">
  <path
    d="M36.875 35C36.3779 35.0006 35.9013 35.1983 35.5498 35.5498C35.1983 35.9013 35.0006 36.3779 35 36.875V37.5H33.75V36.1348C34.1145 36.0064 34.4304 35.7683 34.6542 35.4532C34.878 35.1381 34.9988 34.7615 35 34.375V33.125C35 32.6277 34.8025 32.1508 34.4508 31.7992C34.0992 31.4475 33.6223 31.25 33.125 31.25C32.6277 31.25 32.1508 31.4475 31.7992 31.7992C31.4475 32.1508 31.25 32.6277 31.25 33.125V34.375C31.2512 34.7615 31.372 35.1381 31.5958 35.4532C31.8196 35.7683 32.1355 36.0064 32.5 36.1348V37.5H32.22L30.0439 34.0439C29.2231 32.7399 28.454 31.3828 27.744 30H28.125C28.2908 30 28.4497 29.9342 28.5669 29.8169C28.6842 29.6997 28.75 29.5408 28.75 29.375V26.875C28.75 26.7092 28.6842 26.5503 28.5669 26.4331C28.4497 26.3158 28.2908 26.25 28.125 26.25H26.0083C25.4075 24.8153 24.8682 23.3479 24.3969 21.8705C24.5582 21.8655 24.7113 21.7979 24.8239 21.6822C24.9364 21.5664 24.9995 21.4114 25 21.25V18.75C25 18.5842 24.9342 18.4253 24.8169 18.3081C24.6997 18.1908 24.5408 18.125 24.375 18.125H23.3459C22.413 14.2338 21.9222 10.2497 21.8828 6.24844C22.047 6.24661 22.2039 6.18014 22.3194 6.06344C22.4349 5.94674 22.4998 5.78921 22.5 5.625V3.125C22.5 2.95924 22.4342 2.80027 22.3169 2.68306C22.1997 2.56585 22.0408 2.5 21.875 2.5H20.625V1.25H19.375V2.5H18.125C17.9592 2.5 17.8003 2.56585 17.6831 2.68306C17.5658 2.80027 17.5 2.95924 17.5 3.125V5.625C17.5002 5.78921 17.5651 5.94674 17.6806 6.06344C17.7961 6.18014 17.953 6.24661 18.1172 6.24844C18.0778 10.2497 17.587 14.2338 16.6541 18.125H15.625C15.4592 18.125 15.3003 18.1908 15.1831 18.3081C15.0658 18.4253 15 18.5842 15 18.75V21.25C15.0005 21.4114 15.0636 21.5664 15.1761 21.6822C15.2887 21.7979 15.4418 21.8655 15.6031 21.8705C15.1318 23.3479 14.5925 24.8153 13.9917 26.25H11.875C11.7092 26.25 11.5503 26.3158 11.4331 26.4331C11.3158 26.5503 11.25 26.7092 11.25 26.875V29.375C11.25 29.5408 11.3158 29.6997 11.4331 29.8169C11.5503 29.9342 11.7092 30 11.875 30H12.256C11.546 31.3828 10.7769 32.7399 9.95602 34.0439L7.78 37.5H5V36.1348C5.36454 36.0064 5.68041 35.7683 5.90422 35.4532C6.12803 35.1381 6.24882 34.7615 6.25 34.375V33.125C6.25 32.6277 6.05246 32.1508 5.70083 31.7992C5.34919 31.4475 4.87228 31.25 4.375 31.25C3.87772 31.25 3.40081 31.4475 3.04917 31.7992C2.69754 32.1508 2.5 32.6277 2.5 33.125V34.375C2.50118 34.7615 2.62198 35.1381 2.84579 35.4532C3.0696 35.7683 3.38546 36.0064 3.75 36.1348V37.5H1.25V38.75H38.75V36.875C38.7494 36.3779 38.5517 35.9013 38.2002 35.5498C37.8487 35.1983 37.3721 35.0006 36.875 35ZM32.5 33.125C32.5 32.9592 32.5658 32.8003 32.6831 32.6831C32.8003 32.5658 32.9592 32.5 33.125 32.5C33.2908 32.5 33.4497 32.5658 33.5669 32.6831C33.6842 32.8003 33.75 32.9592 33.75 33.125V34.375C33.75 34.5408 33.6842 34.6997 33.5669 34.8169C33.4497 34.9342 33.2908 35 33.125 35C32.9592 35 32.8003 34.9342 32.6831 34.8169C32.5658 34.6997 32.5 34.5408 32.5 34.375V33.125ZM3.75 33.125C3.75 32.9592 3.81585 32.8003 3.93306 32.6831C4.05027 32.5658 4.20924 32.5 4.375 32.5C4.54076 32.5 4.69973 32.5658 4.81694 32.6831C4.93415 32.8003 5 32.9592 5 33.125V34.375C5 34.5408 4.93415 34.6997 4.81694 34.8169C4.69973 34.9342 4.54076 35 4.375 35C4.20924 35 4.05027 34.9342 3.93306 34.8169C3.81585 34.6997 3.75 34.5408 3.75 34.375V33.125ZM19.8255 21.875H20.1745L21.6328 26.25H18.3672L19.8255 21.875ZM22.9505 26.25L21.4922 21.875H23.0823C23.5403 23.3478 24.0662 24.8138 24.6515 26.25H22.9505ZM18.75 3.75H21.25V5H18.75V3.75ZM19.3726 6.25H20.6274C20.6659 10.2488 21.145 14.2312 22.0559 18.125H17.9441C18.855 14.2312 19.3341 10.2488 19.3726 6.25ZM16.25 19.375H23.75V20.625H16.25V19.375ZM16.9177 21.875H18.5078L17.0495 26.25H15.3485C15.9338 24.8138 16.4597 23.3478 16.9177 21.875ZM12.5 27.5H27.5V28.75H12.5V27.5ZM22.6918 30L23.5305 32.2368C22.466 31.5913 21.2449 31.25 20 31.25C18.7551 31.25 17.534 31.5913 16.4695 32.2368L17.3082 30H22.6918ZM11.0138 34.7098C11.967 33.1955 12.8567 31.6129 13.6612 30H15.973L14.4327 34.1073C13.7094 35.1026 13.2685 36.2748 13.1566 37.5H9.25719L11.0138 34.7098ZM14.4095 37.5C14.5632 36.1249 15.2184 34.8547 16.2498 33.9322C17.2811 33.0097 18.6163 32.4998 20 32.4998C21.3837 32.4998 22.7189 33.0097 23.7502 33.9322C24.7816 34.8547 25.4368 36.1249 25.5905 37.5H14.4095ZM26.8438 37.5C26.7319 36.2748 26.291 35.1026 25.5677 34.1073L24.027 30H26.3388C27.1435 31.6129 28.0328 33.1953 28.9862 34.7098L30.7428 37.5H26.8438ZM36.25 37.5V36.875C36.25 36.7092 36.3158 36.5503 36.4331 36.4331C36.5503 36.3158 36.7092 36.25 36.875 36.25C37.0408 36.25 37.1997 36.3158 37.3169 36.4331C37.4342 36.5503 37.5 36.7092 37.5 36.875V37.5H36.25Z"
    fill="#1f2937" />
</svg>