<?xml version="1.0" standalone="no"?>
<!DOCTYPE svg PUBLIC "-//W3C//DTD SVG 20010904//EN" "http://www.w3.org/TR/2001/REC-SVG-20010904/DTD/svg10.dtd">
<svg version="1.0" xmlns="http://www.w3.org/2000/svg"
  width="512.000000pt" height="512.000000pt" viewBox="0 0 512.000000 512.000000"
  preserveAspectRatio="xMidYMid meet">

  <g transform="translate(0.000000,512.000000) scale(0.100000,-0.100000)"
    fill="#1f2937" stroke="none">
    <path
      d="M1045 4980 c-238 -32 -457 -202 -546 -420 -45 -113 -51 -154 -56
-435 -5 -267 -6 -270 -30 -299 -13 -15 -30 -44 -38 -63 -21 -49 -19 -149 4
-198 19 -43 87 -110 127 -125 28 -11 26 -5 48 -122 33 -175 107 -310 248 -451
l88 -87 0 -105 c0 -58 -2 -105 -4 -105 -19 0 -676 -205 -706 -220 -59 -30
-118 -93 -149 -159 l-26 -56 -3 -488 -3 -487 25 -25 c14 -14 34 -25 46 -25 20
0 20 -3 20 -459 0 -253 3 -467 6 -476 4 -8 19 -22 34 -30 36 -19 83 -4 99 31
8 17 11 161 11 479 l0 455 145 0 144 0 3 -465 c3 -463 3 -465 25 -486 30 -30
80 -30 105 0 17 22 18 59 18 757 l0 734 -95 189 c-112 224 -137 249 -199 200
-17 -14 -26 -30 -26 -50 0 -17 36 -101 85 -199 l85 -170 0 -180 0 -180 -190 0
-190 0 0 413 c0 380 2 415 19 452 34 72 67 93 223 141 78 24 148 44 154 44 5
0 18 -26 28 -57 70 -222 235 -413 449 -518 136 -67 225 -87 382 -88 192 -1
327 40 492 149 152 101 285 276 336 441 12 40 27 73 32 73 6 0 48 -12 94 -25
71 -21 88 -23 110 -12 54 26 61 100 11 127 -11 6 -96 34 -188 61 -92 28 -211
64 -264 80 l-98 30 0 110 0 109 71 67 c80 75 141 158 188 250 36 73 81 221 81
269 0 36 2 39 74 87 70 46 110 120 110 201 -1 67 -26 138 -63 170 -21 19 -21
25 -21 296 0 153 -4 300 -10 329 -16 84 -58 159 -125 226 -34 34 -66 72 -70
86 -23 72 -96 146 -185 188 l-55 26 -410 2 c-225 0 -437 -3 -470 -7z m849
-149 c61 -15 108 -59 136 -131 18 -46 35 -71 65 -93 57 -43 84 -79 106 -142
17 -49 19 -84 19 -362 l0 -307 42 -43 c37 -37 42 -49 42 -84 -2 -51 -33 -86
-92 -101 -59 -15 -82 -41 -82 -95 0 -65 -28 -189 -60 -265 -77 -185 -246 -339
-445 -405 -71 -24 -95 -27 -220 -27 -127 0 -147 2 -220 27 -287 100 -471 336
-500 642 -9 90 -24 113 -78 122 -93 14 -130 111 -68 174 28 27 35 29 108 29
157 0 198 29 248 170 l32 95 109 7 c398 26 650 70 853 148 93 36 121 58 121
96 0 37 -16 61 -48 72 -22 8 -42 4 -102 -20 -99 -39 -228 -73 -374 -98 -129
-22 -444 -50 -561 -50 -55 0 -78 -4 -94 -17 -13 -11 -36 -63 -59 -133 l-39
-115 -73 -3 -72 -3 5 233 c3 182 8 245 22 288 66 211 246 365 460 393 62 8
782 6 819 -2z m-699 -2187 c53 -14 105 -19 210 -19 145 0 225 14 323 56 l43
19 -3 -143 c-3 -131 -5 -146 -30 -198 -68 -138 -200 -215 -353 -207 -134 7
-255 89 -312 212 -26 56 -28 72 -31 198 l-4 138 44 -19 c24 -10 75 -27 113
-37z m-245 -374 c31 -61 153 -181 216 -213 201 -102 447 -64 604 93 57 57 109
143 131 218 7 24 18 42 27 42 8 0 52 -12 99 -26 97 -29 94 -23 48 -137 -38
-95 -86 -167 -160 -242 -114 -113 -239 -176 -404 -203 -155 -26 -329 8 -469
90 -81 47 -221 189 -265 268 -36 67 -82 189 -73 197 2 3 47 17 98 32 l93 27
16 -50 c9 -28 26 -71 39 -96z" />
    <path
      d="M1000 3720 c-16 -16 -20 -33 -20 -95 0 -88 17 -115 73 -115 54 0 72
28 72 115 0 58 -4 77 -19 94 -25 27 -79 28 -106 1z" />
    <path
      d="M1710 3720 c-16 -16 -20 -33 -20 -95 0 -88 17 -115 73 -115 54 0 72
28 72 115 0 58 -4 77 -19 94 -25 27 -79 28 -106 1z" />
    <path
      d="M1192 3293 c-7 -3 -19 -18 -28 -34 -14 -28 -14 -33 3 -67 37 -76 176
-140 273 -126 64 9 145 51 187 97 29 33 34 44 29 71 -7 36 -39 66 -71 66 -13
0 -42 -15 -64 -34 -50 -42 -101 -60 -141 -51 -17 4 -54 24 -82 46 -49 37 -75
45 -106 32z" />
    <path
      d="M3665 4623 c-461 -63 -834 -432 -899 -891 -8 -53 -17 -209 -20 -347
-7 -300 -52 -908 -82 -1110 -4 -32 -1 -46 16 -67 31 -40 189 -88 585 -180 l60
-14 -332 -133 c-183 -73 -350 -146 -372 -161 -46 -34 -96 -103 -117 -162 -8
-24 -18 -99 -21 -170 l-6 -128 -99 0 -98 0 0 174 0 175 92 185 c86 174 90 186
79 214 -8 18 -26 36 -43 43 -56 23 -73 4 -180 -209 l-98 -193 0 -732 c1 -585
3 -735 14 -749 30 -39 92 -40 122 0 11 13 13 114 14 480 l0 462 99 0 98 0 6
-67 c4 -57 9 -71 32 -90 14 -13 32 -23 40 -23 12 0 15 -60 17 -375 3 -370 3
-375 25 -396 27 -27 75 -29 103 -4 19 18 20 30 20 397 l0 378 105 0 105 0 0
-369 c0 -203 3 -377 6 -386 4 -8 19 -22 34 -30 38 -19 84 -4 99 33 8 19 11
177 9 536 l-3 508 -24 19 c-32 26 -67 24 -96 -6 -22 -21 -25 -33 -25 -90 l0
-65 -145 0 -145 0 0 213 c1 148 4 218 13 233 25 44 54 72 94 92 47 24 289 122
302 122 4 0 16 -21 26 -47 28 -77 102 -189 171 -258 312 -317 820 -311 1125
12 63 67 133 173 159 243 7 19 17 39 21 44 4 5 77 -19 165 -54 174 -70 224
-106 243 -175 6 -23 11 -123 11 -232 l0 -193 -145 0 -145 0 0 49 c0 65 -16
106 -46 120 -35 16 -47 14 -78 -10 l-26 -20 0 -523 c0 -511 0 -523 20 -541 28
-25 76 -23 103 4 22 21 22 26 25 396 l3 375 99 0 100 0 0 -365 c0 -251 4 -372
11 -389 16 -35 63 -50 99 -31 15 8 30 22 34 30 3 9 6 182 6 384 l0 367 35 13
c19 7 40 21 46 32 7 13 9 114 7 292 l-3 272 -28 57 c-16 33 -50 77 -81 105
-47 43 -80 59 -352 167 -376 150 -367 146 -362 151 2 2 64 18 138 34 171 38
414 107 462 132 23 12 40 29 44 44 3 13 -4 118 -15 232 -33 325 -50 583 -61
903 -11 328 -15 378 -36 465 -90 362 -363 653 -714 759 -47 14 -114 30 -150
36 -62 9 -233 11 -295 3z m305 -159 c330 -62 602 -309 695 -629 29 -99 44
-262 45 -475 0 -192 58 -996 75 -1047 4 -12 -67 -37 -235 -82 -66 -18 -301
-71 -315 -71 -3 0 -5 28 -5 63 l0 63 63 41 c35 23 97 77 139 121 160 168 239
364 240 599 0 118 -13 185 -54 267 -74 147 -208 220 -524 286 -309 64 -434
106 -555 186 -102 67 -119 63 -193 -50 -62 -93 -162 -193 -225 -226 -24 -12
-73 -26 -109 -31 -36 -5 -76 -12 -90 -16 l-25 -6 6 124 c8 189 45 322 126 458
135 225 372 388 628 431 81 13 226 11 313 -6z m-274 -918 c54 -19 155 -47 224
-61 354 -76 434 -103 510 -171 54 -49 79 -104 89 -200 39 -342 -190 -670 -533
-764 -96 -27 -249 -29 -351 -5 -92 21 -215 82 -292 146 -151 123 -263 350
-263 532 0 58 -27 92 -77 100 -51 9 -79 30 -93 72 -10 30 -9 41 7 73 20 40 43
51 157 71 117 21 234 101 334 227 l64 82 63 -34 c34 -19 107 -50 161 -68z
m-769 -561 c2 -1 9 -39 18 -86 16 -93 41 -172 75 -239 64 -126 184 -263 293
-335 l57 -38 0 -63 c0 -35 -2 -64 -4 -64 -40 0 -522 126 -539 140 -5 4 -1 74
7 156 13 123 46 507 46 537 0 7 38 1 47 -8z m698 -790 c119 -28 343 -17 438
20 15 6 17 0 17 -62 0 -164 53 -238 220 -307 121 -50 118 -43 62 -156 -74
-151 -233 -276 -408 -320 -290 -74 -600 74 -725 347 -16 35 -29 68 -29 75 0 7
45 30 99 52 118 45 160 78 195 148 22 44 26 65 26 141 0 80 2 88 18 83 9 -3
48 -13 87 -21z" />
    <path
      d="M3412 3293 c-37 -15 -56 -131 -31 -187 23 -51 103 -55 128 -7 6 11
11 51 11 90 0 63 -2 71 -26 90 -26 20 -55 25 -82 14z" />
    <path
      d="M4122 3293 c-37 -15 -56 -131 -31 -187 23 -51 103 -55 128 -7 6 11
11 51 11 90 0 63 -2 71 -26 90 -26 20 -55 25 -82 14z" />
    <path
      d="M3593 2848 c-26 -13 -47 -59 -38 -87 10 -33 101 -108 152 -125 101
-35 220 -7 299 68 36 35 44 49 44 78 0 74 -72 95 -135 39 -67 -58 -130 -67
-186 -26 -95 69 -99 71 -136 53z" />
  </g>
</svg>