<?xml version="1.0" standalone="no"?>
<!DOCTYPE svg PUBLIC "-//W3C//DTD SVG 20010904//EN" "http://www.w3.org/TR/2001/REC-SVG-20010904/DTD/svg10.dtd">
<svg version="1.0" xmlns="http://www.w3.org/2000/svg"
  width="512.000000pt" height="512.000000pt" viewBox="0 0 512.000000 512.000000"
  preserveAspectRatio="xMidYMid meet">

  <g transform="translate(0.000000,512.000000) scale(0.100000,-0.100000)"
    fill="#1f2937" stroke="none">
    <path
      d="M1030 4900 c-135 -16 -241 -60 -342 -141 -84 -67 -141 -138 -189
-234 -60 -121 -69 -181 -69 -466 0 -239 -1 -246 -21 -265 -36 -32 -62 -103
-62 -169 0 -91 42 -159 132 -214 33 -19 36 -26 53 -112 36 -179 108 -311 240
-442 l88 -87 0 -98 0 -98 -312 -93 c-172 -52 -337 -105 -366 -119 -62 -30
-124 -94 -155 -160 -22 -46 -22 -57 -25 -518 -3 -462 -2 -471 18 -497 11 -14
30 -27 43 -29 l22 -3 3 -449 c2 -401 4 -452 19 -468 23 -26 84 -24 109 3 18
20 19 45 22 470 l3 449 134 0 134 0 3 -449 c3 -425 4 -450 22 -470 27 -30 89
-29 110 1 23 33 24 1383 1 1448 -16 47 -132 229 -173 273 -30 31 -70 35 -100
10 -44 -37 -38 -61 37 -175 106 -162 101 -145 101 -328 l0 -160 -180 0 -181 0
3 408 c4 517 -11 481 239 558 78 24 143 43 144 41 1 -1 10 -27 20 -57 41 -128
123 -258 221 -351 77 -72 137 -112 237 -159 126 -58 202 -74 347 -74 139 0
219 16 334 66 l68 30 32 -30 c39 -38 80 -58 134 -67 37 -6 42 -10 42 -33 1
-15 7 -63 15 -107 28 -161 146 -342 275 -425 l50 -32 0 -68 0 -68 -167 -56
c-183 -62 -230 -90 -283 -167 -50 -74 -60 -123 -60 -298 1 -166 5 -182 51
-199 33 -13 74 3 88 34 6 15 11 83 11 167 0 117 4 149 19 183 22 49 70 88 133
110 l46 15 78 -78 c128 -127 246 -177 419 -177 174 0 313 60 431 187 l63 69
51 -17 c62 -21 105 -55 130 -106 17 -33 20 -59 20 -187 0 -134 2 -152 20 -174
11 -14 28 -28 38 -30 31 -8 81 18 88 45 3 14 4 101 2 194 -3 154 -5 172 -27
213 -62 116 -103 144 -315 216 l-166 56 0 67 1 66 49 34 c103 70 215 215 250
324 6 20 14 37 17 37 3 0 26 -18 51 -41 240 -211 606 -243 886 -77 127 75 257
224 307 352 11 28 23 54 27 58 13 13 295 -108 338 -145 57 -49 64 -83 64 -296
l0 -181 -140 0 -140 0 0 54 c0 69 -6 83 -40 101 -36 19 -83 4 -99 -31 -8 -18
-11 -168 -11 -508 0 -466 1 -484 20 -508 25 -33 49 -39 89 -22 17 7 32 14 33
16 1 2 5 170 8 373 l5 370 92 3 92 3 3 -365 c3 -342 4 -365 22 -385 25 -27 86
-29 109 -3 15 16 17 61 19 383 l3 364 22 3 c13 2 32 15 44 30 20 26 20 35 17
292 -3 256 -4 267 -27 310 -37 70 -70 110 -118 140 -25 16 -182 84 -350 151
l-306 122 114 33 c237 67 478 186 507 249 9 20 6 71 -13 237 -28 248 -51 583
-64 923 -7 188 -14 257 -30 317 -50 190 -126 322 -266 464 -201 203 -440 304
-720 304 -465 0 -863 -309 -985 -765 -18 -67 -24 -134 -36 -424 -8 -190 -15
-345 -17 -347 -13 -11 -150 -74 -162 -74 -11 0 -469 222 -483 234 -1 2 4 24
12 51 8 26 18 72 22 102 6 49 10 55 43 73 85 44 136 125 135 220 0 68 -16 110
-60 163 -24 28 -24 29 -24 306 0 226 -3 287 -16 332 -22 73 -54 125 -114 184
-28 28 -61 73 -74 102 -45 97 -138 165 -252 183 -68 11 -708 11 -804 0z m835
-162 c44 -24 81 -68 95 -113 8 -27 34 -61 80 -105 97 -94 100 -107 100 -402
l0 -238 -50 0 c-60 0 -94 -15 -109 -47 -15 -34 -14 -47 9 -75 17 -22 29 -26
100 -30 71 -4 85 -8 108 -31 18 -18 26 -37 26 -60 0 -54 -26 -83 -88 -101 -31
-9 -60 -24 -65 -34 -5 -9 -14 -59 -20 -111 -14 -115 -40 -195 -92 -283 -98
-167 -267 -289 -456 -329 -75 -15 -212 -15 -287 1 -239 50 -434 227 -517 467
-10 31 -24 97 -29 146 -6 49 -15 98 -20 108 -6 11 -34 25 -66 35 -63 18 -88
48 -87 102 1 23 10 43 27 60 24 25 33 26 152 32 108 4 128 8 139 24 8 10 31
68 50 127 l37 109 76 0 c170 0 471 38 651 81 208 51 321 105 321 154 0 30 -25
66 -49 72 -35 9 -52 6 -116 -22 -151 -67 -445 -116 -798 -134 -137 -7 -171
-12 -187 -26 -10 -9 -35 -66 -55 -126 l-37 -109 -64 0 -64 0 0 208 c0 152 4
223 15 265 55 210 229 367 440 397 33 4 227 7 430 7 324 -2 374 -4 400 -19z
m2153 -344 c165 -33 311 -113 437 -239 96 -96 136 -156 190 -282 49 -114 63
-201 70 -438 8 -282 21 -497 47 -755 12 -118 22 -235 22 -260 l1 -45 -70 -37
c-117 -62 -385 -158 -442 -158 -9 0 -13 18 -13 58 l0 57 55 35 c64 39 181 155
226 220 188 279 200 659 26 834 -87 87 -206 134 -475 191 -287 60 -394 98
-522 184 -25 17 -57 31 -71 31 -35 0 -65 -36 -74 -87 -16 -100 -110 -197 -232
-238 -78 -27 -103 -49 -103 -90 0 -39 31 -75 64 -75 34 0 108 26 176 60 73 37
167 126 199 189 12 23 25 41 29 39 126 -67 243 -105 468 -153 294 -62 374 -93
441 -169 53 -61 68 -116 67 -251 0 -126 -19 -199 -81 -319 -56 -107 -182 -229
-293 -284 -120 -58 -199 -75 -340 -70 -128 5 -229 33 -325 90 -45 27 -56 41
-89 109 -37 77 -112 185 -155 223 -20 18 -21 28 -21 199 0 172 -1 182 -22 204
-30 32 -56 29 -148 -17 -44 -22 -83 -40 -87 -40 -5 0 -7 26 -5 57 1 32 6 166
12 298 10 266 18 309 81 443 51 110 112 195 197 273 111 102 264 182 407 213
94 19 258 20 353 0z m-1673 -1466 c69 -35 125 -65 125 -68 0 -5 -245 -130
-255 -130 -3 0 -5 59 -5 130 0 72 2 130 5 130 3 0 61 -28 130 -62z m735 -68
c0 -71 -2 -130 -5 -130 -10 0 -255 125 -255 130 0 6 240 128 253 129 4 1 7
-57 7 -129z m-1078 -140 c-33 -39 -77 -103 -98 -143 l-39 -72 -3 132 -3 132
98 98 98 98 3 -87 3 -87 -59 -71z m898 -70 c132 -66 250 -120 263 -120 12 0
32 7 44 15 20 14 22 12 57 -58 53 -105 76 -208 76 -340 l0 -109 34 -32 c44
-41 57 -68 50 -104 -11 -55 -44 -75 -135 -82 -108 -7 -119 -20 -119 -134 -1
-225 -110 -404 -306 -498 -78 -37 -94 -42 -183 -46 -168 -8 -294 39 -405 152
-106 108 -156 237 -156 402 0 103 -13 117 -119 124 -65 5 -86 11 -105 29 -47
44 -38 116 17 149 25 15 60 21 153 26 361 18 764 111 989 229 91 48 111 77 84
125 -27 48 -58 50 -146 9 -225 -105 -471 -167 -798 -202 -77 -8 -164 -15 -194
-15 l-54 0 7 63 c3 35 13 90 22 123 15 61 82 204 95 204 3 0 12 -7 19 -15 7
-8 24 -15 39 -14 14 0 132 54 261 119 129 65 243 119 253 119 9 1 125 -53 257
-119z m-1632 -29 c118 -13 247 1 360 39 l84 28 -4 -132 c-3 -116 -6 -137 -29
-186 -127 -268 -511 -268 -638 0 -23 49 -26 70 -29 186 l-4 132 84 -28 c47
-16 126 -33 176 -39z m-385 -254 c19 -60 76 -159 115 -200 15 -16 53 -46 86
-68 165 -110 393 -108 558 5 56 37 123 109 153 160 7 12 9 -8 7 -71 -3 -67 -8
-93 -22 -108 -28 -31 -60 -97 -60 -125 0 -37 -10 -46 -70 -74 -95 -44 -176
-60 -295 -60 -123 0 -184 14 -300 70 -143 68 -245 173 -320 329 -66 136 -66
134 35 166 47 15 88 27 91 28 3 1 13 -23 22 -52z m2717 -145 c69 -24 88 -26
240 -26 119 0 179 4 216 15 l51 15 5 -85 c9 -148 59 -211 218 -275 52 -21 97
-39 99 -42 2 -2 -16 -42 -40 -90 -104 -210 -308 -337 -544 -337 -170 0 -308
57 -432 180 -40 39 -73 76 -73 81 0 5 21 15 46 21 95 24 171 105 188 202 10
56 -11 134 -50 185 -32 41 -34 49 -34 120 0 68 2 75 18 69 9 -3 51 -18 92 -33z
m-955 -1227 c61 0 127 4 148 8 l37 8 0 -46 c0 -25 6 -61 14 -79 16 -38 67 -81
109 -91 15 -4 27 -11 27 -15 0 -16 -89 -86 -143 -113 -122 -59 -266 -59 -386
3 -57 29 -141 94 -141 110 0 5 14 11 30 15 37 8 86 48 105 86 8 15 15 51 15
79 l0 51 38 -8 c20 -4 87 -8 147 -8z" />
    <path
      d="M989 3696 c-32 -16 -49 -52 -49 -109 0 -99 60 -146 124 -96 24 19 26
27 26 90 0 39 -4 79 -10 89 -14 27 -62 41 -91 26z" />
    <path
      d="M1673 3695 c-37 -16 -43 -30 -43 -111 0 -56 4 -68 25 -89 60 -61 125
-11 125 98 0 86 -44 128 -107 102z" />
    <path
      d="M1145 3258 c-100 -86 103 -244 268 -208 146 31 235 145 162 207 -35
30 -63 25 -117 -21 -42 -37 -82 -49 -128 -40 -16 4 -47 21 -68 40 -54 46 -82
51 -117 22z" />
    <path
      d="M3473 3270 c-12 -5 -26 -18 -32 -29 -14 -25 -14 -136 0 -162 25 -48
105 -44 128 7 14 32 14 116 0 147 -6 14 -22 30 -36 36 -28 13 -30 13 -60 1z" />
    <path
      d="M4144 3257 c-27 -24 -29 -30 -29 -97 0 -67 2 -73 29 -97 22 -18 35
-23 55 -18 51 13 61 31 61 115 0 84 -10 102 -61 115 -20 5 -33 0 -55 -18z" />
    <path
      d="M3626 2827 c-36 -36 -33 -69 10 -117 80 -89 212 -117 322 -70 62 27
132 98 132 135 0 29 -40 75 -65 75 -23 0 -67 -24 -89 -49 -46 -50 -134 -46
-191 9 -44 43 -87 49 -119 17z" />
    <path d="M2370 1903 c-51 -19 -68 -85 -30 -123 45 -45 120 -11 120 53 0 47
-49 85 -90 70z" />
    <path d="M2880 1903 c-51 -19 -68 -85 -30 -123 45 -45 120 -11 120 53 0 47
-49 85 -90 70z" />
    <path
      d="M2421 1534 c-33 -42 -27 -72 23 -120 92 -88 227 -107 336 -48 99 54
135 123 90 172 -22 23 -83 31 -95 11 -18 -28 -90 -69 -122 -69 -42 0 -93 23
-124 56 -31 34 -81 33 -108 -2z" />
  </g>
</svg>