<svg width="40" height="40" viewBox="0 0 40 40" fill="none" xmlns="http://www.w3.org/2000/svg">
  <path
    d="M12.7429 24H6.98437C6.55289 24 6.20312 24.3498 6.20312 24.7812V25.5681C6.20312 25.9996 6.55289 26.3494 6.98437 26.3494C7.41585 26.3494 7.76562 25.9996 7.76562 25.5681V25.5625H11.9617V25.5681C11.9617 25.9996 12.3114 26.3494 12.7429 26.3494C13.1744 26.3494 13.5242 25.9996 13.5242 25.5681V24.7812C13.5242 24.3498 13.1744 24 12.7429 24Z"
    fill="#1f2937" />
  <path
    d="M32.4661 22.8516H26.0586C25.6271 22.8516 25.2773 23.2013 25.2773 23.6328V24.5083C25.2773 24.9398 25.6271 25.2896 26.0586 25.2896C26.4901 25.2896 26.8398 24.9398 26.8398 24.5083V24.4141H31.6849V24.5083C31.6849 24.9398 32.0347 25.2896 32.4661 25.2896C32.8976 25.2896 33.2474 24.9398 33.2474 24.5083V23.6328C33.2474 23.2013 32.8976 22.8516 32.4661 22.8516Z"
    fill="#1f2937" />
  <path
    d="M32.8809 34.1992H32.8437C32.4123 34.1992 32.0625 34.549 32.0625 34.9805C32.0625 35.4119 32.4123 35.7617 32.8437 35.7617H32.8809C33.3123 35.7617 33.6621 35.4119 33.6621 34.9805C33.6621 34.549 33.3123 34.1992 32.8809 34.1992Z"
    fill="#1f2937" />
  <path
    d="M39.2188 34.2016H38.5031L36.7178 27.0289L38.3244 23.9996C38.3986 23.8596 38.4285 23.7003 38.4102 23.5429L36.8598 10.2665C36.8592 10.2618 36.8579 10.2572 36.8572 10.2525C36.8538 10.2277 36.8496 10.2034 36.8439 10.1794C36.8421 10.1716 36.84 10.1639 36.8379 10.1561C36.8317 10.1329 36.8245 10.11 36.8163 10.0877C36.8147 10.0835 36.8139 10.0791 36.8122 10.075L34.7451 4.73742C34.6286 4.43656 34.3392 4.23828 34.0166 4.23828H24.5084C24.1859 4.23828 23.8964 4.43656 23.7799 4.73742L21.7128 10.075C21.7111 10.0791 21.7103 10.0835 21.7088 10.0877C21.7006 10.11 21.6933 10.1329 21.6871 10.1561C21.6851 10.1639 21.683 10.1716 21.6811 10.1794C21.6756 10.2033 21.6712 10.2277 21.6678 10.2525C21.6672 10.2572 21.6658 10.2618 21.6653 10.2665L20.115 23.5429C20.0966 23.7004 20.1265 23.8596 20.2007 23.9996L21.8074 27.029L20.0219 34.2017H18.2297L16.6473 27.845L18.0771 25.1492C18.1513 25.0092 18.1812 24.8499 18.1629 24.6925L16.7695 12.7609C16.769 12.7561 16.7676 12.7516 16.7669 12.7468C16.7637 12.7221 16.7593 12.6978 16.7537 12.6738C16.7519 12.666 16.7497 12.6582 16.7476 12.6505C16.7415 12.6272 16.7342 12.6044 16.726 12.5821C16.7244 12.5779 16.7236 12.5735 16.722 12.5693L14.8643 7.7724C14.7478 7.47154 14.4584 7.27326 14.1358 7.27326H5.59075C5.26817 7.27326 4.97872 7.47154 4.86224 7.7724L3.00451 12.5693C3.00287 12.5735 3.00201 12.5778 3.00053 12.5821C2.99233 12.6044 2.98506 12.6272 2.97889 12.6505C2.97686 12.6582 2.97475 12.666 2.97287 12.6738C2.96733 12.6978 2.96295 12.7221 2.95959 12.7468C2.95897 12.7515 2.95756 12.7561 2.95701 12.7609L1.56374 24.6925C1.54538 24.85 1.5753 25.0092 1.64952 25.1492L3.0792 27.8449L1.49687 34.2017H0.781245C0.349764 34.2017 0 34.5515 0 34.9829C0 35.4144 0.349764 35.7642 0.781245 35.7642H28.9851C29.4165 35.7642 29.7663 35.4144 29.7663 34.9829C29.7663 34.5515 29.4165 34.2017 28.9851 34.2017H21.6322L22.9033 29.0953L23.8182 30.8205C23.9537 31.0759 24.2192 31.2356 24.5084 31.2356H34.0167C34.3059 31.2356 34.5714 31.0759 34.7068 30.8205L35.6218 29.0952L36.8929 34.2016H35.1544C34.7229 34.2016 34.3732 34.5514 34.3732 34.9829C34.3732 35.4143 34.7229 35.7641 35.1544 35.7641H39.2188C39.6502 35.7641 40 35.4143 40 34.9829C40 34.5514 39.6502 34.2016 39.2188 34.2016ZM15.2983 13.6327L15.4337 14.7924L12.5036 14.1133L12.434 13.6327H15.2983ZM6.12598 8.83575H13.6006L14.8533 12.0702H4.87333L6.12598 8.83575ZM11.7678 19.9326L11.0304 21.539H8.69628L7.95886 19.9326L8.87151 13.6327H10.8552L11.7678 19.9326ZM4.42826 13.6327H7.29261L7.223 14.1133L4.29287 14.7924L4.42826 13.6327ZM4.10044 16.4409L6.98262 15.7729L6.37942 19.9368C6.35785 20.0858 6.37981 20.2379 6.44262 20.3747L7.48527 22.6461C7.61261 22.9236 7.88995 23.1014 8.19526 23.1014H11.5314C11.8367 23.1014 12.1141 22.9236 12.2414 22.6461L13.2841 20.3747C13.3469 20.2379 13.3688 20.0858 13.3473 19.9368L12.7441 15.7729L15.6262 16.4409L16.5827 24.6321L13.6659 30.1319H6.06075L3.14397 24.6321L4.10044 16.4409ZM3.10709 34.2017L4.17505 29.9113L4.9006 31.2791C5.03606 31.5346 5.30161 31.6943 5.59075 31.6943H14.1359C14.4251 31.6943 14.6905 31.5346 14.826 31.2791L15.5515 29.9113L16.6194 34.2017H3.10709ZM35.5627 12.6308L32.1219 11.8333L32.0212 11.1383H35.3884L35.5627 12.6308ZM25.0437 5.80077H33.4814L34.9433 9.57583H23.5816L25.0437 5.80077ZM31.4725 18.2494L30.6176 20.1118H27.9073L27.0524 18.2494L28.0826 11.1383H30.4423L31.4725 18.2494ZM23.1366 11.1383H26.5038L26.4031 11.8333L22.9623 12.6308L23.1366 11.1383ZM33.5466 29.6732H24.9784L21.6952 23.4825L22.7699 14.2793L26.1628 13.4929L25.4731 18.2537C25.4516 18.4027 25.4734 18.5548 25.5363 18.6916L26.6964 21.219C26.8237 21.4965 27.1012 21.6743 27.4064 21.6743H31.1186C31.4239 21.6743 31.7012 21.4965 31.8286 21.219L32.9888 18.6916C33.0516 18.5548 33.0736 18.4027 33.052 18.2537L32.3623 13.4929L35.7551 14.2792L36.8298 23.4824L33.5466 29.6732Z"
    fill="#1f2937" />
</svg>