<?xml version="1.0" standalone="no"?>
<!DOCTYPE svg PUBLIC "-//W3C//DTD SVG 20010904//EN" "http://www.w3.org/TR/2001/REC-SVG-20010904/DTD/svg10.dtd">
<svg version="1.0" xmlns="http://www.w3.org/2000/svg"
  width="512.000000pt" height="512.000000pt" viewBox="0 0 512.000000 512.000000"
  preserveAspectRatio="xMidYMid meet">

  <g transform="translate(0.000000,512.000000) scale(0.100000,-0.100000)"
    fill="#1f2937" stroke="none">
    <path
      d="M1171 5106 c-42 -23 -50 -53 -51 -173 l0 -112 -447 -3 c-431 -3 -450
-4 -494 -24 -66 -31 -114 -78 -146 -142 l-28 -57 0 -830 0 -830 23 -65 c44
-129 125 -237 227 -305 l55 -36 0 -1165 0 -1164 -115 0 c-81 0 -124 -4 -144
-14 -66 -35 -66 -137 0 -172 42 -21 4976 -21 5018 0 47 25 63 83 37 135 -22
42 -55 51 -181 51 l-115 0 0 1164 0 1165 55 37 c119 78 222 234 244 371 8 48
11 301 9 863 l-3 795 -28 57 c-32 64 -80 111 -146 142 -44 20 -63 21 -493 24
l-448 3 0 109 c0 121 -10 154 -51 176 -37 19 -943 21 -984 2 -49 -22 -68 -85
-41 -137 26 -50 37 -51 471 -51 l405 0 0 -330 0 -330 -1240 0 -1240 0 0 330 0
330 405 0 c434 0 445 1 471 51 27 52 8 115 -41 137 -39 18 -951 16 -984 -2z
m-51 -726 c0 -262 4 -285 55 -308 38 -17 2732 -17 2770 0 51 23 55 46 55 308
l0 240 420 0 c303 0 426 -3 445 -12 53 -24 55 -38 55 -408 l0 -340 -2360 0
-2360 0 0 343 c1 366 2 376 51 403 19 10 115 13 447 14 l422 0 0 -240z m-142
-1072 l-3 -353 -32 -67 c-40 -85 -106 -151 -191 -191 -61 -29 -76 -32 -162
-32 -85 0 -102 3 -160 31 -86 41 -153 108 -193 192 l-32 67 -3 353 -3 352 391
0 391 0 -3 -352z m980 0 l-3 -353 -32 -67 c-142 -301 -564 -301 -706 0 l-32
67 -3 353 -3 352 391 0 391 0 -3 -352z m1000 -1 l-3 -352 -32 -66 c-80 -161
-271 -257 -441 -220 -124 26 -230 108 -284 219 l-33 67 -3 352 -3 353 401 0
401 0 -3 -353z m980 1 l-3 -353 -32 -67 c-142 -301 -564 -301 -706 0 l-32 67
-3 353 -3 352 391 0 391 0 -3 -352z m982 19 c0 -372 -4 -399 -67 -494 -166
-250 -546 -219 -676 55 l-32 67 -3 353 -3 352 391 0 390 0 0 -333z m-2643
-795 c78 -41 198 -72 277 -72 176 1 360 86 469 217 l31 39 76 -76 c86 -87 163
-131 276 -160 98 -25 190 -25 288 0 110 28 190 74 274 157 l72 72 73 -72 c41
-41 99 -86 134 -105 81 -43 198 -72 290 -72 l73 0 0 -1130 0 -1130 -1385 0
-1385 0 0 890 c0 968 2 932 -55 958 -37 17 -983 17 -1020 0 -57 -26 -55 10
-55 -958 l0 -890 -100 0 -100 0 0 1130 0 1130 73 0 c92 0 209 29 290 72 35 19
93 64 135 105 l72 72 73 -72 c153 -152 357 -209 561 -157 113 29 190 73 275
160 l74 75 76 -75 c44 -44 102 -89 138 -108z m-637 -1172 l0 -500 -365 0 -365
0 0 500 0 500 365 0 365 0 0 -500z m0 -930 l0 -230 -365 0 -365 0 0 230 0 230
365 0 365 0 0 -230z" />
    <path
      d="M2201 2046 c-51 -28 -50 -17 -51 -683 0 -462 3 -629 12 -648 26 -57
-24 -55 1118 -55 1142 0 1092 -2 1118 55 17 37 17 1253 0 1290 -26 57 24 55
-1120 55 -855 -1 -1057 -3 -1077 -14z m2009 -686 l0 -500 -210 0 -210 0 0 100
0 100 65 0 c76 0 111 14 131 51 27 52 8 115 -41 137 -36 17 -464 17 -500 0
-29 -13 -55 -55 -55 -88 0 -33 26 -75 55 -88 14 -7 53 -12 85 -12 l60 0 0
-100 0 -100 -310 0 -310 0 0 100 0 100 65 0 c76 0 111 14 131 51 26 52 10 110
-37 135 -37 19 -474 21 -514 2 -29 -13 -55 -55 -55 -88 0 -33 26 -75 55 -88
14 -7 55 -12 90 -12 l65 0 0 -100 0 -100 -210 0 -210 0 0 500 0 500 930 0 930
0 0 -500z" />
    <path d="M2511 5106 c-87 -48 -50 -186 49 -186 51 0 100 49 100 99 0 75 -83
124 -149 87z" />
  </g>
</svg>