<svg width="40" height="40" viewBox="0 0 40 40" fill="none" xmlns="http://www.w3.org/2000/svg">
  <path
    d="M27.3028 38.75C27.4686 38.75 27.6276 38.6842 27.7448 38.5669C27.862 38.4497 27.9278 38.2908 27.9278 38.125V35.6512L28.321 30.9256L28.5591 32.5887C28.5805 32.7376 28.6548 32.8738 28.7684 32.9723C28.8821 33.0708 29.0274 33.125 29.1778 33.125H34.8916C35.0298 33.6601 35.3413 34.1343 35.7776 34.4736C36.2138 34.8128 36.7502 34.9979 37.3028 35H37.9278C38.0936 35 38.2526 34.9342 38.3698 34.8169C38.487 34.6997 38.5528 34.5408 38.5528 34.375V29.375C38.5528 29.2092 38.487 29.0503 38.3698 28.9331C38.2526 28.8158 38.0936 28.75 37.9278 28.75H32.9278V26.875C32.9278 26.7092 32.862 26.5503 32.7448 26.4331C32.6276 26.3158 32.4686 26.25 32.3028 26.25C32.1371 26.25 31.9781 26.3158 31.8609 26.4331C31.7437 26.5503 31.6778 26.7092 31.6778 26.875V29.375C31.6778 29.5408 31.7437 29.6997 31.8609 29.8169C31.9781 29.9342 32.1371 30 32.3028 30H34.8028V31.875H29.7197L29.171 28.0363C29.1496 27.8875 29.0754 27.7514 28.9619 27.6529C28.8483 27.5544 28.7031 27.5001 28.5528 27.5H27.9278C27.7707 27.4995 27.6191 27.5581 27.5033 27.6644C27.3875 27.7706 27.3159 27.9165 27.3028 28.0731L26.7278 35H24.8028V25H32.3028C32.4508 24.9999 32.5939 24.9474 32.7067 24.8517C32.8196 24.756 32.8948 24.6234 32.9191 24.4775L33.5247 20.845L38.4847 12.5781C38.7189 12.1809 38.7969 11.7108 38.7035 11.2592C38.6101 10.8077 38.3519 10.4071 37.9793 10.1354C37.6068 9.86375 37.1464 9.74049 36.6879 9.78963C36.2294 9.83877 35.8056 10.0568 35.4991 10.4012L33.0253 13.225C32.723 13.1176 32.3909 13.1313 32.0985 13.2631L32.0103 13.3031C32.1239 13.036 32.2061 12.7567 32.2553 12.4706C32.2815 12.3069 32.2416 12.1395 32.1444 12.0053C32.0472 11.871 31.9006 11.7809 31.7369 11.7547C31.5732 11.7285 31.4058 11.7684 31.2716 11.8656C31.1373 11.9629 31.0472 12.1094 31.021 12.2731C30.9209 12.8936 30.5908 13.4537 30.0965 13.8417C29.6021 14.2298 28.9796 14.4174 28.3531 14.3672C27.7267 14.317 27.1421 14.0327 26.7158 13.5708C26.2895 13.109 26.0528 12.5035 26.0528 11.875V10.625H31.6778C31.8436 10.625 32.0026 10.5592 32.1198 10.4419C32.237 10.3247 32.3028 10.1658 32.3028 10C32.3028 9.00544 31.9078 8.05161 31.2045 7.34835C30.5012 6.64509 29.5474 6.25 28.5528 6.25C27.5583 6.25 26.6045 6.64509 25.9012 7.34835C25.1979 8.05161 24.8028 9.00544 24.8028 10V11.875C24.8022 12.3761 24.9025 12.8722 25.0978 13.3337C24.4918 13.2645 23.8807 13.2511 23.2722 13.2938C23.4573 12.8436 23.5526 12.3617 23.5528 11.875V10C23.5517 9.00579 23.1562 8.05264 22.4532 7.34963C21.7502 6.64662 20.7971 6.25116 19.8028 6.25H16.6778C16.5121 6.25 16.3531 6.31585 16.2359 6.43306C16.1187 6.55027 16.0528 6.70924 16.0528 6.875V11.875C16.0535 12.3387 16.1406 12.7982 16.3097 13.23C16.1555 13.1647 15.9897 13.131 15.8222 13.131C15.6547 13.131 15.4889 13.1647 15.3347 13.23L12.9053 10.455C12.6374 10.136 12.272 9.91392 11.8655 9.82279C11.459 9.73166 11.0338 9.77658 10.6553 9.95062C10.4232 10.0627 10.2169 10.2218 10.0496 10.4179C9.8823 10.6141 9.75768 10.8429 9.68366 11.0898C9.60964 11.3367 9.58785 11.5963 9.61967 11.8522C9.65148 12.108 9.73622 12.3544 9.86847 12.5756L14.8303 20.845L15.4072 24.305L12.9697 30.3931C12.9122 30.5379 12.9104 30.6989 12.9647 30.845L14.5816 35.1575C14.0986 35.3306 13.6806 35.6484 13.3847 36.0675C13.0888 36.4867 12.9293 36.9869 12.9278 37.5V38.125C12.9278 38.2908 12.9937 38.4497 13.1109 38.5669C13.2281 38.6842 13.3871 38.75 13.5528 38.75H27.3028ZM32.3916 20.3031C32.3515 20.3707 32.3242 20.445 32.311 20.5225L31.7728 23.75H24.8028V17.1931C24.8029 17.0574 24.8472 16.9254 24.9289 16.817C25.0107 16.7086 25.1255 16.6298 25.256 16.5925L26.1666 16.3319C26.3131 16.8371 26.6162 17.2828 27.0321 17.6049C27.4481 17.9269 27.9556 18.1086 28.4814 18.1238C29.0072 18.139 29.5243 17.987 29.9583 17.6896C30.3922 17.3921 30.7205 16.9647 30.896 16.4688C31.1613 16.7698 31.5161 16.9778 31.9084 17.0622C32.3007 17.1466 32.7097 17.1029 33.0753 16.9375C33.5278 16.7317 33.8803 16.3549 34.0554 15.8897C34.2306 15.4244 34.2141 14.9088 34.0097 14.4556L33.8728 14.1531L35.0785 12.7781L36.2822 13.8206L32.3916 20.3031ZM37.2291 11.1188C37.3589 11.205 37.4504 11.338 37.4846 11.49C37.5188 11.6421 37.4931 11.8014 37.4128 11.935L36.9366 12.73L35.9028 11.8344L36.4378 11.2238C36.5347 11.1135 36.6683 11.0422 36.8138 11.0229C36.9593 11.0036 37.1068 11.0376 37.2291 11.1188ZM32.6128 14.4019V14.4056L32.8685 14.9681C32.9024 15.0429 32.9212 15.1236 32.9239 15.2057C32.9266 15.2877 32.9131 15.3695 32.8842 15.4463C32.8553 15.5232 32.8116 15.5936 32.7555 15.6535C32.6994 15.7134 32.632 15.7617 32.5572 15.7956C32.4824 15.8295 32.4017 15.8484 32.3197 15.8511C32.2376 15.8538 32.1558 15.8403 32.079 15.8114C32.0022 15.7825 31.9318 15.7387 31.8718 15.6826C31.8119 15.6265 31.7636 15.5591 31.7297 15.4844L31.4722 14.9144L32.6128 14.4019ZM29.8003 15.4081V15.625C29.8003 15.9565 29.6686 16.2745 29.4342 16.5089C29.1998 16.7433 28.8819 16.875 28.5503 16.875C28.2188 16.875 27.9009 16.7433 27.6665 16.5089C27.432 16.2745 27.3003 15.9565 27.3003 15.625V15.4062C27.7015 15.55 28.1242 15.624 28.5503 15.625C28.9771 15.6241 29.4006 15.5508 29.8028 15.4081H29.8003ZM28.5528 7.5C29.1069 7.50064 29.6451 7.68506 30.0832 8.02436C30.5212 8.36366 30.8343 8.83868 30.9735 9.375H26.1316C26.2708 8.83857 26.584 8.36348 27.0221 8.02417C27.4603 7.68485 27.9987 7.5005 28.5528 7.5ZM22.3028 11.875C22.3028 12.538 22.0395 13.1739 21.5706 13.6428C21.1018 14.1116 20.4659 14.375 19.8028 14.375C19.1398 14.375 18.5039 14.1116 18.0351 13.6428C17.5662 13.1739 17.3028 12.538 17.3028 11.875V10.625H22.3028V11.875ZM18.5528 15.4062C19.3607 15.6979 20.245 15.6979 21.0528 15.4062V15.625C21.0528 15.9565 20.9211 16.2745 20.6867 16.5089C20.4523 16.7433 20.1344 16.875 19.8028 16.875C19.4713 16.875 19.1534 16.7433 18.919 16.5089C18.6845 16.2745 18.5528 15.9565 18.5528 15.625V15.4062ZM17.3028 7.5H19.8028C20.3569 7.50064 20.8951 7.68506 21.3332 8.02436C21.7712 8.36366 22.0843 8.83868 22.2235 9.375H17.3028V7.5ZM15.8235 14.375L16.9066 15L16.5941 15.5412C16.5106 15.6836 16.3742 15.7872 16.2147 15.8294C16.0551 15.8716 15.8853 15.8489 15.7424 15.7664C15.5995 15.6839 15.495 15.5482 15.4518 15.3889C15.4085 15.2296 15.43 15.0597 15.5116 14.9162L15.8235 14.375ZM10.8816 11.4494C10.9058 11.3678 10.9469 11.2923 11.0023 11.2276C11.0576 11.163 11.126 11.1108 11.2028 11.0744C11.3348 11.0222 11.48 11.0137 11.6171 11.0501C11.7543 11.0866 11.8761 11.166 11.9647 11.2769L12.4522 11.8337L11.4191 12.7294L10.9422 11.9375C10.8982 11.8651 10.87 11.7841 10.8595 11.6999C10.8491 11.6158 10.8566 11.5304 10.8816 11.4494ZM16.476 25H21.2491C21.4149 25 21.5738 24.9342 21.691 24.8169C21.8082 24.6997 21.8741 24.5408 21.8741 24.375C21.8741 24.2092 21.8082 24.0503 21.691 23.9331C21.5738 23.8158 21.4149 23.75 21.2491 23.75H16.5822L16.0441 20.5225C16.0309 20.445 16.0036 20.3707 15.9635 20.3031L12.0722 13.8181L13.2753 12.7756L14.4991 14.1719L14.4303 14.2912C14.1824 14.7224 14.1156 15.2342 14.2445 15.7146C14.3733 16.1949 14.6874 16.6046 15.1178 16.8538C15.493 17.0712 15.9325 17.1503 16.3599 17.0772C16.7874 17.0041 17.1756 16.7835 17.4572 16.4538C17.6529 17.0087 18.0384 17.4766 18.5458 17.7747C19.0531 18.0728 19.6495 18.1819 20.2295 18.0827C20.8095 17.9835 21.3357 17.6824 21.7152 17.2326C22.0946 16.7829 22.3028 16.2134 22.3028 15.625V14.6706L22.6335 14.62C23.6452 14.4641 24.6765 14.4872 25.6803 14.6881L26.0553 14.7625V15.0625L24.9147 15.3881C24.5237 15.5014 24.1799 15.7383 23.9348 16.0633C23.6897 16.3884 23.5566 16.7841 23.5553 17.1912V35H21.5947L21.0528 31.2056V28.125C21.0528 27.9592 20.987 27.8003 20.8698 27.6831C20.7526 27.5658 20.5936 27.5 20.4278 27.5H19.1778C19.0808 27.5 18.9851 27.5226 18.8983 27.566C18.8116 27.6094 18.7361 27.6724 18.6778 27.75L16.8028 30.25C16.747 30.3243 16.7085 30.41 16.69 30.5011C16.6715 30.5921 16.6736 30.6861 16.696 30.7763L17.7522 35H15.8603L14.2228 30.6325L16.476 25ZM17.9278 37.5H14.1778C14.1778 37.1685 14.3095 36.8505 14.544 36.6161C14.7784 36.3817 15.0963 36.25 15.4278 36.25H17.9278V37.5ZM19.1591 35.4737L17.981 30.7619L19.4903 28.75H19.8028V31.25C19.8028 31.2797 19.8048 31.3094 19.8091 31.3387L20.3485 35.1131C19.895 35.2469 19.4889 35.507 19.1778 35.8631V35.625L19.1591 35.4737ZM21.0528 36.25H22.0253C21.8001 36.6282 21.6801 37.0598 21.6778 37.5H19.8028C19.8028 37.1685 19.9345 36.8505 20.169 36.6161C20.4034 36.3817 20.7213 36.25 21.0528 36.25ZM26.6778 37.5H22.9278C22.9278 37.1685 23.0595 36.8505 23.294 36.6161C23.5284 36.3817 23.8463 36.25 24.1778 36.25H26.6778V37.5ZM37.3028 33.75C36.9713 33.75 36.6534 33.6183 36.419 33.3839C36.1845 33.1495 36.0528 32.8315 36.0528 32.5V30H37.3028V33.75Z"
    fill="#1f2937" />
  <path
    d="M6.5004 24.0893C6.18326 24.0042 5.85247 23.9825 5.52691 24.0252C5.20136 24.068 4.88742 24.1745 4.60303 24.3387C4.31864 24.5028 4.06937 24.7214 3.86946 24.9818C3.66954 25.2423 3.5229 25.5396 3.4379 25.8568L2.84415 28.0824C2.80578 28.2411 2.831 28.4085 2.91444 28.5488C2.99789 28.6891 3.13292 28.7912 3.29066 28.8333C3.4484 28.8753 3.61633 28.854 3.75855 28.7738C3.90076 28.6936 4.00596 28.561 4.05165 28.4043L4.64541 26.1805C4.73126 25.8608 4.94044 25.5882 5.22704 25.4225C5.51363 25.2569 5.85425 25.2116 6.17416 25.2968L7.38228 25.6193L6.41165 29.2443C6.39039 29.3236 6.38495 29.4063 6.39564 29.4877C6.40634 29.5691 6.43297 29.6475 6.474 29.7186C6.51503 29.7897 6.56967 29.8521 6.63479 29.902C6.69991 29.952 6.77424 29.9887 6.85353 30.0099C6.90655 30.024 6.96117 30.0311 7.01603 30.0312C7.1535 30.031 7.28709 29.9856 7.39613 29.9019C7.50516 29.8182 7.58355 29.7008 7.61915 29.568L8.58978 25.943L9.7979 26.2655C10.1163 26.3513 10.3881 26.5589 10.5546 26.8434C10.7212 27.128 10.769 27.4666 10.6879 27.7862L9.0629 33.8337C8.69435 33.7303 8.3068 33.714 7.93087 33.7861C7.55494 33.8582 7.20091 34.0167 6.89675 34.2491C6.59259 34.4815 6.34662 34.7814 6.17826 35.1252C6.0099 35.4689 5.92376 35.8471 5.92666 36.2299L3.42665 35.5587C3.10694 35.4728 2.83434 35.2636 2.66866 34.977C2.50298 34.6904 2.45775 34.3498 2.5429 34.0299L3.4054 30.8174C3.42666 30.7381 3.4321 30.6554 3.42139 30.5741C3.41069 30.4927 3.38407 30.4142 3.34303 30.3431C3.302 30.272 3.24737 30.2097 3.18225 30.1597C3.11714 30.1097 3.04282 30.0731 2.96353 30.0518C2.88424 30.0305 2.80155 30.0251 2.72016 30.0358C2.63878 30.0465 2.5603 30.0731 2.4892 30.1142C2.41811 30.1552 2.35579 30.2098 2.30581 30.2749C2.25583 30.3401 2.21916 30.4144 2.1979 30.4937L1.3354 33.7062C1.25032 34.0233 1.22853 34.354 1.27128 34.6795C1.31403 35.0051 1.42048 35.319 1.58455 35.6034C1.74862 35.8877 1.9671 36.137 2.22751 36.337C2.48793 36.5369 2.78517 36.6836 3.10228 36.7687L6.35603 37.6437C6.68796 38.1464 7.19165 38.511 7.7729 38.6693C7.98346 38.7241 8.20033 38.751 8.4179 38.7493C8.91454 38.7564 9.40187 38.6143 9.81682 38.3413C10.2318 38.0684 10.5552 37.6771 10.7453 37.2183C10.9354 36.7594 10.9833 36.254 10.8829 35.7676C10.7826 35.2812 10.5385 34.8361 10.1823 34.4899L11.8917 28.1243C11.8917 28.1187 11.8917 28.1137 11.8917 28.108L13.5054 22.0849L14.1092 22.2468C14.269 22.2888 14.4389 22.2657 14.5818 22.1827C14.7247 22.0997 14.8289 21.9635 14.8717 21.8039C14.9144 21.6442 14.8921 21.4742 14.8098 21.3309C14.7275 21.1876 14.5917 21.0828 14.4323 21.0393L12.0179 20.3924C11.8578 20.3495 11.6872 20.3719 11.5436 20.4548C11.4 20.5377 11.2952 20.6742 11.2523 20.8343C11.2093 20.9944 11.2318 21.165 11.3147 21.3086C11.3975 21.4522 11.534 21.557 11.6942 21.5999L12.2979 21.7612L11.2354 25.7193C10.9306 25.4043 10.5475 25.1761 10.1254 25.058L6.5004 24.0893ZM9.6254 36.5724C9.58497 36.7332 9.51296 36.8844 9.41355 37.0171C9.31414 37.1498 9.18932 37.2613 9.04637 37.3453C8.90342 37.4293 8.74518 37.484 8.58088 37.5063C8.41658 37.5285 8.24949 37.5179 8.08935 37.4749C7.92921 37.432 7.77921 37.3576 7.64809 37.2561C7.51697 37.1547 7.40734 37.0281 7.3256 36.8839C7.24386 36.7396 7.19164 36.5805 7.17197 36.4159C7.1523 36.2513 7.16558 36.0844 7.21103 35.9249C7.30098 35.6094 7.51141 35.3418 7.79689 35.1801C8.08237 35.0183 8.42 34.9753 8.73693 35.0603C9.05386 35.1453 9.32465 35.3515 9.49088 35.6344C9.6571 35.9173 9.70542 36.2542 9.6254 36.5724Z"
    fill="#1f2937" />
  <path
    d="M6.04697 33.6502C6.18454 33.6502 6.31828 33.6048 6.42744 33.5211C6.5366 33.4374 6.61508 33.32 6.65072 33.1871L6.97384 31.979C6.99764 31.8989 7.00517 31.8149 6.99597 31.7319C6.98678 31.649 6.96104 31.5687 6.9203 31.4958C6.87955 31.4229 6.82461 31.3589 6.75873 31.3076C6.69285 31.2563 6.61735 31.2188 6.53671 31.1971C6.45606 31.1755 6.3719 31.1702 6.28919 31.1817C6.20648 31.1931 6.1269 31.221 6.05515 31.2637C5.9834 31.3064 5.92093 31.363 5.87143 31.4303C5.82194 31.4975 5.78641 31.574 5.76697 31.6552L5.44322 32.8633C5.42195 32.9426 5.41651 33.0253 5.4272 33.1067C5.4379 33.1881 5.46453 33.2666 5.50556 33.3377C5.54659 33.4088 5.60123 33.4711 5.66635 33.5211C5.73147 33.571 5.8058 33.6077 5.88509 33.629C5.93791 33.643 5.99232 33.6501 6.04697 33.6502Z"
    fill="#1f2937" />
</svg>