<svg width="40" height="40" viewBox="0 0 40 40" fill="none" xmlns="http://www.w3.org/2000/svg">
  <g clip-path="url(#clip0_764_51992)">
    <path
      d="M6.66602 12.332H5.33268C4.96449 12.332 4.66602 12.6305 4.66602 12.9987C4.66602 13.3669 4.96449 13.6654 5.33268 13.6654H6.66602C7.03421 13.6654 7.33268 13.3669 7.33268 12.9987C7.33268 12.6305 7.03421 12.332 6.66602 12.332Z"
      fill="#1f2937" />
    <path
      d="M28.666 7.66406C28.666 9.8732 30.4569 11.6641 32.666 11.6641C34.8752 11.6641 36.666 9.8732 36.666 7.66406C36.666 5.45492 34.8752 3.66406 32.666 3.66406C30.4578 3.66627 28.6682 5.45584 28.666 7.66406ZM32.666 4.9974C34.1388 4.9974 35.3327 6.1913 35.3327 7.66406C35.3327 9.13682 34.1388 10.3307 32.666 10.3307C31.1933 10.3307 29.9993 9.13682 29.9993 7.66406C29.9993 6.1913 31.1933 4.9974 32.666 4.9974Z"
      fill="#1f2937" />
    <path
      d="M33.3333 1.6047V0.998698C33.3333 0.630508 33.0349 0.332031 32.6667 0.332031C32.2985 0.332031 32 0.630508 32 0.998698V1.6047C32 1.97289 32.2985 2.27136 32.6667 2.27136C33.0349 2.27136 33.3333 1.97289 33.3333 1.6047Z"
      fill="#1f2937" />
    <path
      d="M32 13.7253V14.3313C32 14.6995 32.2985 14.9979 32.6667 14.9979C33.0349 14.9979 33.3333 14.6995 33.3333 14.3313V13.7253C33.3333 13.3571 33.0349 13.0586 32.6667 13.0586C32.2985 13.0586 32 13.3571 32 13.7253Z"
      fill="#1f2937" />
    <path
      d="M39.3332 7H38.7272C38.359 7 38.0605 7.29848 38.0605 7.66667C38.0605 8.03486 38.359 8.33333 38.7272 8.33333H39.3332C39.7014 8.33333 39.9999 8.03486 39.9999 7.66667C39.9999 7.29848 39.7014 7 39.3332 7Z"
      fill="#1f2937" />
    <path
      d="M26.6067 8.33333C26.9748 8.33333 27.2733 8.03486 27.2733 7.66667C27.2733 7.29848 26.9748 7 26.6067 7H26.0007C25.6325 7 25.334 7.29848 25.334 7.66667C25.334 8.03486 25.6325 8.33333 26.0007 8.33333H26.6067Z"
      fill="#1f2937" />
    <path
      d="M37.853 2.48035C37.5927 2.22009 37.1707 2.22009 36.9103 2.48035L36.4823 2.90835C36.2917 3.09901 36.2347 3.38571 36.3379 3.63478C36.441 3.88386 36.6841 4.04629 36.9537 4.04635C37.287 4.04635 37.4003 3.87568 37.853 3.42301C38.1132 3.16268 38.1132 2.74068 37.853 2.48035Z"
      fill="#1f2937" />
    <path
      d="M27.4823 12.8508C27.7426 13.111 28.1646 13.111 28.425 12.8508L28.853 12.4228C29.1056 12.1612 29.102 11.7454 28.8448 11.4882C28.5877 11.2311 28.1719 11.2275 27.9103 11.4801L27.4823 11.9081C27.222 12.1684 27.222 12.5904 27.4823 12.8508Z"
      fill="#1f2937" />
    <path
      d="M37.4247 11.4801C37.1631 11.2275 36.7473 11.2311 36.4902 11.4882C36.233 11.7454 36.2294 12.1612 36.4821 12.4228C36.8661 12.8068 37.0261 13.0461 37.3814 13.0461C37.651 13.0461 37.894 12.8836 37.9972 12.6345C38.1003 12.3855 38.0433 12.0988 37.8527 11.9081L37.4247 11.4801Z"
      fill="#1f2937" />
    <path
      d="M28.4247 2.48011C28.1631 2.22746 27.7473 2.23108 27.4902 2.48823C27.233 2.74539 27.2294 3.16119 27.4821 3.42278C27.8661 3.80678 28.0261 4.04611 28.3814 4.04611C28.651 4.04605 28.894 3.88363 28.9972 3.63455C29.1003 3.38547 29.0433 3.09877 28.8527 2.90811L28.4247 2.48011Z"
      fill="#1f2937" />
    <path
      d="M39.3333 36.9981C31.106 36.9981 31.6227 37.0508 31.3747 36.8754L27.4 34.0341C27.0613 33.793 26.6557 33.6638 26.24 33.6648H24.542C24.706 33.2054 24.6647 33.2894 24.6647 30.0121L28.292 23.6648H34.376L38.7547 31.3314C38.8697 31.5443 39.091 31.6781 39.3329 31.6811C39.5749 31.6841 39.7994 31.5558 39.9197 31.3458C40.0399 31.1359 40.037 30.8773 39.912 30.6701L32.4893 17.6761C32.2511 17.2614 31.8091 17.006 31.3308 17.0069C30.8526 17.0077 30.4114 17.2646 30.1747 17.6801L24.6667 27.3241V16.2574C25.3199 15.5912 25.508 14.5972 25.1434 13.7383C24.7788 12.8794 23.9331 12.3243 23 12.3314H17.9733L14.28 8.63811C13.6417 8.00515 12.7762 7.65454 11.8773 7.66478C11.848 7.58384 11.8138 7.5048 11.7747 7.42811C13.134 5.79628 13.108 3.41909 11.7132 1.81744C10.3184 0.215794 7.96734 -0.136693 6.16419 0.985497C4.36103 2.10769 3.63898 4.37272 4.46 6.33145H2C0.895431 6.33145 0 7.22688 0 8.33145V10.3314C0.00143 10.8057 0.255499 11.2432 0.666667 11.4794V19.6648C0.666667 20.7693 1.5621 21.6648 2.66667 21.6648V38.3314H0.666667C0.298477 38.3314 0 38.6299 0 38.9981C0 39.3663 0.298477 39.6648 0.666667 39.6648H9.38667C9.97083 39.6644 10.5256 39.4087 10.9053 38.9648L14.1053 35.2314C14.2336 35.0847 14.4185 34.9998 14.6133 34.9981C27.2367 34.9981 26.368 34.9388 26.6253 35.1208L30.6 37.9621C30.9387 38.2033 31.3443 38.3324 31.76 38.3314H39.3333C39.7015 38.3314 40 38.033 40 37.6648C40 37.2966 39.7015 36.9981 39.3333 36.9981ZM31.3333 18.3421L33.614 22.3314H29.0547L31.3333 18.3421ZM22.1893 33.4601C22.0662 33.3381 21.9979 33.1714 22 32.9981V16.9981C22.4447 17.0267 22.8911 17.0135 23.3333 16.9588V32.9981C23.332 33.2687 23.1672 33.5116 22.9163 33.6129C22.6654 33.7142 22.3782 33.6538 22.1893 33.4601ZM23.742 13.9934C24.0109 14.3025 24.0667 14.7433 23.8832 15.1096C23.6997 15.4759 23.3132 15.6951 22.9047 15.6648H22V13.6648C23.078 13.6648 23.3787 13.5934 23.742 13.9934ZM20.6667 13.6648V15.6648H17.4133C16.736 15.6398 16.1053 15.3137 15.6933 14.7754L16.9547 13.2021L17.0287 13.2761C17.2781 13.5239 17.6151 13.6636 17.9667 13.6648H20.6667ZM16.006 12.2534L14.7453 13.8274L13.8053 12.8874C13.6148 12.6964 13.328 12.6391 13.0787 12.7421C12.8294 12.8452 12.6667 13.0883 12.6667 13.3581V19.6648H11.3333V11.4794C11.7445 11.2432 11.9986 10.8057 12 10.3314V9.00611C12.5008 9.02552 12.9763 9.23116 13.3333 9.58278L16.006 12.2534ZM3.33333 14.9981C2.59695 14.9981 2 14.4012 2 13.6648V11.6648H10V13.6648C10 14.4012 9.40305 14.9981 8.66667 14.9981H3.33333ZM8.44667 1.66478C9.59101 1.66548 10.6347 2.31883 11.1353 3.34786C11.636 4.37689 11.5058 5.60134 10.8 6.50211C10.2853 6.27478 10.3913 6.33145 5.96133 6.33145C5.34381 5.41303 5.28302 4.22894 5.80325 3.25211C6.32348 2.27528 7.33995 1.66491 8.44667 1.66478ZM1.33333 8.33145C1.33333 7.96326 1.63181 7.66478 2 7.66478H10C10.3682 7.66478 10.6667 7.96326 10.6667 8.33145V10.3314H1.33333V8.33145ZM2 19.6648V15.9608C2.40356 16.2007 2.86383 16.3287 3.33333 16.3314V17.6648C3.33333 18.033 3.63181 18.3314 4 18.3314C4.36819 18.3314 4.66667 18.033 4.66667 17.6648V16.3314H7.33333V17.6648C7.33333 18.033 7.63181 18.3314 8 18.3314C8.36819 18.3314 8.66667 18.033 8.66667 17.6648V16.3314C9.13617 16.3287 9.59644 16.2007 10 15.9608C10 19.9561 10.0373 19.7808 9.91133 19.9948C9.79298 20.2025 9.57243 20.331 9.33333 20.3314H2.66667C2.29848 20.3314 2 20.033 2 19.6648ZM10.2553 21.4314C10.4637 21.3138 10.6548 21.168 10.8233 20.9981H12.6667C14.5067 21.0003 15.9978 22.4914 16 24.3314V30.3314H12.5887L12 25.6168C11.9742 24.8992 11.3847 24.331 10.6667 24.3314H9.33333C8.61181 24.3261 8.01887 24.8995 8 25.6208L7.376 34.9981H4V21.6648C9.85667 21.6648 9.68333 21.7314 10.2553 21.4314ZM4 38.3314V36.3314H8C8.73638 36.3314 9.33333 36.9284 9.33333 37.6648V38.3314H4ZM10.624 37.2454C10.4586 36.2178 9.70877 35.3813 8.70533 35.1048L9.33333 25.6648H10.6667C10.6668 25.6924 10.6686 25.72 10.672 25.7474C11.4667 32.0968 11.3333 30.3588 11.3333 33.6648C11.3367 34.3576 11.8701 34.9324 12.5607 34.9874L10.624 37.2454ZM12.6667 33.6648V31.6648H16.6667C17.403 31.6648 18 32.2617 18 32.9981V33.6648H12.6667ZM17.3333 30.4261V24.3314C17.3275 22.2732 15.9728 20.4622 14 19.8754V14.9674L15.0553 16.0228C15.6823 16.6456 16.5296 16.9961 17.4133 16.9981H20.6667C20.6667 34.5048 20.6153 33.1761 20.7873 33.6648H19.3333V32.9981C19.3288 31.7858 18.5071 30.7292 17.3333 30.4261Z"
      fill="#1f2937" />
  </g>
  <defs>
    <clipPath id="clip0_764_51992">
      <rect width="40" height="40" fill="white" />
    </clipPath>
  </defs>
</svg>