<svg id="Layer_1" enable-background="new 0 0 66 66" height="512" viewBox="0 0 66 66" width="512" xmlns="http://www.w3.org/2000/svg"><g style="fill:none;stroke:#000;stroke-width:1.5;stroke-linecap:round;stroke-linejoin:round;stroke-miterlimit:10"><g><ellipse cx="44.7" cy="38.9" rx="8.3" ry="3.1"/><path d="m53 38.9v14.9c0 1.7-3.7 3.1-8.3 3.1s-8.3-1.4-8.3-3.1v-14.9c0 1.7 3.7 3.1 8.3 3.1s8.3-1.4 8.3-3.1z"/><path d="m64 43.9c0 1.7-3.7 3.1-8.3 3.1-1 0-1.9-.1-2.7-.2v-5.8c.9-.1 1.8-.2 2.7-.2 4.6 0 8.3 1.4 8.3 3.1z"/><path d="m64 43.9v9.9c0 1.7-3.7 3.1-8.3 3.1-2.1 0-4-.3-5.5-.8 1.7-.6 2.8-1.4 2.8-2.3v-7c.9.1 1.8.2 2.7.2 4.6 0 8.3-1.4 8.3-3.1z"/><path d="m53 43.9c0 1.7-3.7 3.1-8.3 3.1s-8.3-1.4-8.3-3.1"/><path d="m53 48.9c0 1.7-3.7 3.1-8.3 3.1s-8.3-1.4-8.3-3.1"/><path d="m64 48.9c0 1.7-3.7 3.1-8.3 3.1-.9 0-1.7-.1-2.6-.1"/></g><path d="m64 43.9v9.9c0 1.7-3.7 3.1-8.3 3.1-2.1 0-4-.3-5.5-.8-1.5.5-3.4.8-5.5.8-4.6 0-8.3-1.4-8.3-3.1v-14.9c0-1.7 3.7-3.1 8.3-3.1s8.3 1.4 8.3 3.1c0 .4-.2.7-.5 1.1.3-.3.5-.7.5-1.1v2.1c.9-.1 1.8-.2 2.7-.2 4.6 0 8.3 1.4 8.3 3.1z"/><path d="m64 48.9c0 1.7-3.7 3.1-8.3 3.1-.9 0-1.7-.1-2.6-.1"/><path d="m35.5 31.1 3.4 1.9-16 9.3-.4.2-.5-.1-19.5-11.3-.5-.3 16.4-9.5 3.4 1.9z"/><path d="m59.9 20.9-13.6 7.9-3.3-2-13.7-7.9-3.4-1.9 5.4-3.1 7.7-4.6.4-.2.4.3 19.5 11.3z"/><path d="m35.5 31.1-12.2 7.1c-.6-.3-1.3-.3-1.9 0l-10.7-6.2c.9-.5.9-1.8 0-2.3l11.1-6.4z"/><path d="m51 22.1-8 4.7-13.7-7.9 9.3-5.4c.6.3 1.3.3 1.9 0l10.5 6.1c-.9.6-.9 2 0 2.5z"/><path d="m46.3 28.8-5.1 3-2.3 1.3-3.4-2-13.7-7.9-3.4-1.9 7.5-4.3 3.3 1.9 13.8 7.9z"/><path d="m42.1 18.4c-1.1-.6-2.9-.6-3.9 0-1.1.6-1.1 1.7 0 2.3s2.9.6 3.9 0c1.1-.7 1.1-1.7 0-2.3"/><path d="m23.5 29.6c-1.1-.6-2.9-.6-3.9 0-1.1.6-1.1 1.7 0 2.3s2.9.6 3.9 0 1.1-1.7 0-2.3"/><path d="m2 30.8v4.8.1l20.4 11.8 10.8-6.3"/><path d="m47.8 32.8 12.1-7v-.2-4.7"/><path d="m2 35.6v.1 4.7l20.4 11.8 10.9-6.3"/><path d="m53.1 34.4 6.8-3.9v-4.7-.2"/><path d="m2 40.3v4.8l20.4 11.8 11-6.3"/><path d="m59.9 30.3v4.9l-4.1 2.4"/><path d="m38.9 33.6v-.5l7.4-4.3v4.1"/></g></svg>