<svg width="40" height="40" viewBox="0 0 40 40" fill="none" xmlns="http://www.w3.org/2000/svg">
  <path
    d="M18.1504 21.2674C18.1502 20.9913 18.0047 20.7358 17.7673 20.5947C15.817 19.4366 14.6055 17.3089 14.6055 15.0422C14.6055 12.7763 15.817 10.6493 17.7673 9.49117C18.0047 9.35016 18.1502 9.09461 18.1504 8.81844C18.1505 8.54234 18.0052 8.28664 17.768 8.14539C16.5346 7.41141 15.1193 7.02344 13.675 7.02344C9.25344 7.02344 5.65625 10.6206 5.65625 15.0422C5.65625 19.4646 9.25344 23.0624 13.675 23.0624C15.1193 23.0624 16.5347 22.6745 17.768 21.9405C18.0052 21.7992 18.1505 21.5435 18.1504 21.2674ZM13.6749 21.497C10.1166 21.497 7.22172 18.6013 7.22172 15.0423C7.22172 11.484 10.1166 8.58906 13.6749 8.58906C14.4155 8.58906 15.1465 8.71563 15.8358 8.96008C14.0854 10.4697 13.04 12.6961 13.04 15.0423C13.04 17.3895 14.0852 19.6163 15.8358 21.126C15.1465 21.3703 14.4155 21.497 13.6749 21.497Z"
    fill="#1f2937" />
  <path
    d="M21.1484 19.6218C21.1484 21.0459 22.307 22.2045 23.7311 22.2045C25.1552 22.2045 26.3137 21.0459 26.3137 19.6218V14.8014C26.3137 14.1028 26.8821 13.5344 27.5808 13.5344C28.013 13.5344 28.3636 13.1839 28.3636 12.7516C28.3636 12.3192 28.0131 11.9688 27.5808 11.9688C26.0188 11.9688 24.7481 13.2395 24.7481 14.8013V17.248C24.4359 17.1138 24.0921 17.039 23.7311 17.039C22.307 17.0391 21.1484 18.1977 21.1484 19.6218ZM23.731 18.6047C24.2918 18.6047 24.748 19.0609 24.748 19.6218C24.748 20.1827 24.2918 20.6389 23.731 20.6389C23.1702 20.6389 22.7139 20.1826 22.7139 19.6218C22.7139 19.061 23.1702 18.6047 23.731 18.6047Z"
    fill="#1f2937" />
  <path
    d="M38.3506 25.5203V15.9145C38.3506 15.0515 37.6485 14.3494 36.7855 14.3494H32.1714C31.9482 10.5926 30.3689 7.09289 27.6758 4.4243C24.7965 1.57133 20.9781 0 16.9241 0C8.50109 0 1.64844 6.85266 1.64844 15.2757C1.64844 20.5409 4.30711 25.3685 8.76047 28.1895C8.89039 28.2717 9.03547 28.311 9.17859 28.311C9.43789 28.311 9.69164 28.1823 9.8407 27.947C10.072 27.5818 9.96344 27.0982 9.59828 26.8668C5.60062 24.3345 3.21398 20.0014 3.21398 15.2756C3.21398 7.71578 9.36437 1.56547 16.9241 1.56547C20.5627 1.56547 23.9897 2.9757 26.5739 5.53633C28.9729 7.91344 30.3864 11.0252 30.6034 14.368C29.8488 14.4794 29.2672 15.1294 29.2672 15.9144V21.248C28.1723 23.5063 26.4828 25.4206 24.3695 26.79C22.1527 28.2265 19.5781 28.9859 16.9242 28.9859C16.5622 28.9859 16.1964 28.9716 15.837 28.9434C15.4055 28.9109 15.0292 29.2318 14.9955 29.6627C14.9617 30.0938 15.2838 30.4705 15.7148 30.5042C16.1146 30.5355 16.5216 30.5514 16.9241 30.5514C19.8809 30.5514 22.7498 29.705 25.2209 28.1038C26.802 27.0792 28.1691 25.7797 29.2672 24.2753V25.5202C29.2672 27.7554 30.8945 29.6165 33.0261 29.9841V35.096L30.1034 37.1501C29.5416 37.5449 29.3031 38.2502 29.5102 38.905C29.7173 39.5599 30.318 39.9998 31.0047 39.9998H36.6131C37.2999 39.9998 37.9005 39.5598 38.1076 38.905C38.3146 38.2502 38.0762 37.5449 37.5144 37.1502L34.5916 35.096V29.9841C36.7234 29.6166 38.3506 27.7555 38.3506 25.5203ZM36.7851 20.2594H30.8324L30.8322 15.9149L36.7851 15.9145V20.2594ZM30.8327 25.5203L30.8325 21.8249H36.7851V25.5203C36.7851 27.1555 35.4548 28.4859 33.8196 28.4859H33.7981C32.163 28.4859 30.8327 27.1555 30.8327 25.5203ZM36.6152 38.432C36.6149 38.4328 36.6147 38.4337 36.6144 38.4345C36.6139 38.4345 36.6135 38.4345 36.613 38.4345H31.0046C31.0041 38.4345 31.0037 38.4345 31.0033 38.4345C31.003 38.4336 31.0027 38.4327 31.0024 38.432C31.0028 38.4316 31.0031 38.4314 31.0035 38.4312L33.8088 36.4596L36.6141 38.4312C36.6145 38.4315 36.6148 38.4317 36.6152 38.432Z"
    fill="#1f2937" />
  <path
    d="M12.3395 29.8117C12.7718 29.8117 13.1223 29.4612 13.1223 29.0289C13.1223 28.5966 12.7718 28.2461 12.3395 28.2461C11.9071 28.2461 11.5566 28.5966 11.5566 29.0289C11.5566 29.4612 11.9071 29.8117 12.3395 29.8117Z"
    fill="#1f2937" />
  <path
    d="M19.4898 14.718C19.9222 14.718 20.2727 14.3675 20.2727 13.9352C20.2727 13.5028 19.9222 13.1523 19.4898 13.1523C19.0575 13.1523 18.707 13.5028 18.707 13.9352C18.707 14.3675 19.0575 14.718 19.4898 14.718Z"
    fill="#1f2937" />
  <path
    d="M22.9176 12.007C23.3499 12.007 23.7004 11.6566 23.7004 11.2242C23.7004 10.7919 23.3499 10.4414 22.9176 10.4414C22.4852 10.4414 22.1348 10.7919 22.1348 11.2242C22.1348 11.6566 22.4852 12.007 22.9176 12.007Z"
    fill="#1f2937" />
  <path
    d="M20.7555 8.72969C21.1878 8.72969 21.5383 8.37921 21.5383 7.94688C21.5383 7.51454 21.1878 7.16406 20.7555 7.16406C20.3231 7.16406 19.9727 7.51454 19.9727 7.94688C19.9727 8.37921 20.3231 8.72969 20.7555 8.72969Z"
    fill="#1f2937" />
</svg>